<svg id="图层_1" data-name="图层 1" xmlns="http://www.w3.org/2000/svg" viewBox="0 0 118 118"><defs><style>.cls-1{fill:#040000;}.cls-2,.cls-3{fill:#fff;}.cls-3{stroke:#231815;stroke-miterlimit:10;stroke-width:0.25px;}</style></defs><polyline class="cls-1" points="1.55 53.98 14.5 73.2 117.57 73.2 87.19 31.65 81.33 31.65 81.33 47.13 68.79 37.63 63.37 37.63 62.93 42.99 53.78 37.63 47.92 37.63 46.78 46.72 41.06 42.99 35.21 42.99 35.21 41.27 23.49 41.27 20.93 31.04 14.91 31.11 15.97 51.02 12.42 50.09 7.41 48.15 1.55 48.12 1.55 53.98 1.55 48.54 1.55 54.4"/><path class="cls-2" d="M95.11,64.6a1.35,1.35,0,0,1-.92-.27,1,1,0,0,1-.32-.81h.35a.78.78,0,0,0,.23.61,1.17,1.17,0,0,0,1.32,0,.81.81,0,0,0,.22-.62V61.47h.35v2.05a1,1,0,0,1-.32.81A1.34,1.34,0,0,1,95.11,64.6Zm-.22-2.86v-.27h1.28v.27Z"/><path class="cls-2" d="M97.13,64.56V61.47h.34v3.09Zm.3,0v-.27H98A1.34,1.34,0,0,0,99,64a1.19,1.19,0,0,0,.33-.92,1.34,1.34,0,0,0-.33-1,1.3,1.3,0,0,0-1-.33h-.53l-.07-.27H98c1.11,0,1.66.53,1.66,1.59s-.55,1.5-1.66,1.5Z"/><path class="cls-2" d="M100.08,64.56,101.3,63l1.1-1.51h.39l-1.25,1.66-1.07,1.43Zm2.32,0-1.06-1.43-1.26-1.66h.39l1.1,1.51,1.22,1.58Z"/><path class="cls-2" d="M104.71,64.6a1.38,1.38,0,0,1-.92-.27,1,1,0,0,1-.31-.81h.35a.77.77,0,0,0,.22.61,1,1,0,0,0,.68.21,1,1,0,0,0,.65-.2.81.81,0,0,0,.22-.62V61.47h.34v2.05a1,1,0,0,1-.31.81A1.37,1.37,0,0,1,104.71,64.6Zm-.22-2.86v-.27h1.29v.27Z"/><rect class="cls-3" x="47.92" y="37.63" width="5.86" height="5.86"/><rect class="cls-3" x="51.21" y="43.09" width="5.86" height="5.86"/><rect class="cls-3" x="58.23" y="53.99" width="5.86" height="5.86"/><rect class="cls-3" x="62.93" y="59.44" width="5.86" height="5.86"/><rect class="cls-3" x="47.92" y="59.44" width="5.86" height="5.86"/><rect class="cls-3" x="51.21" y="53.99" width="5.86" height="5.86"/><rect class="cls-3" x="54.78" y="48.54" width="5.86" height="5.86"/><rect class="cls-3" x="58.23" y="43.09" width="5.86" height="5.86"/><rect class="cls-3" x="62.93" y="37.63" width="5.86" height="5.86"/><rect class="cls-3" x="23.49" y="41.27" width="5.86" height="27.87"/><rect class="cls-3" x="29.35" y="41.27" width="5.86" height="5.86"/><rect class="cls-3" x="35.21" y="42.99" width="5.86" height="5.86"/><rect class="cls-3" x="41.07" y="47.86" width="5.86" height="5.86"/><rect class="cls-3" x="41.07" y="53.72" width="5.86" height="5.86"/><rect class="cls-3" x="35.21" y="59.58" width="5.86" height="5.86"/><rect class="cls-3" x="29.35" y="63.28" width="5.86" height="5.86"/><rect class="cls-3" x="14.91" y="31.11" width="5.86" height="19.04"/><rect class="cls-3" x="12.66" y="50.15" width="5.86" height="5.86"/><rect class="cls-3" x="7.41" y="53.98" width="5.86" height="5.86"/><rect class="cls-3" x="1.55" y="48.12" width="5.86" height="5.86"/><rect class="cls-3" x="81.33" y="31.65" width="5.86" height="19.04"/><rect class="cls-3" x="79.09" y="50.69" width="5.86" height="5.86"/><rect class="cls-3" x="73.83" y="54.52" width="5.86" height="5.86"/><rect class="cls-3" x="67.97" y="48.66" width="5.86" height="5.86"/><rect class="cls-2" x="47.92" y="37.66" width="5.86" height="5.86"/><rect class="cls-2" x="51.21" y="43.11" width="5.86" height="5.86"/><rect class="cls-2" x="58.23" y="54.01" width="5.86" height="5.86"/><rect class="cls-2" x="62.93" y="59.46" width="5.86" height="5.86"/><rect class="cls-2" x="47.92" y="59.46" width="5.86" height="5.86"/><rect class="cls-2" x="51.21" y="54.01" width="5.86" height="5.86"/><rect class="cls-2" x="54.78" y="48.56" width="5.86" height="5.86"/><rect class="cls-2" x="58.23" y="43.11" width="5.86" height="5.86"/><rect class="cls-2" x="62.93" y="37.66" width="5.86" height="5.86"/><rect class="cls-2" x="23.49" y="41.29" width="5.86" height="27.87"/><rect class="cls-2" x="29.35" y="41.29" width="5.86" height="5.86"/><rect class="cls-2" x="35.21" y="43.02" width="5.86" height="5.86"/><rect class="cls-2" x="41.07" y="47.89" width="5.86" height="5.86"/><rect class="cls-2" x="41.07" y="53.74" width="5.86" height="5.86"/><rect class="cls-2" x="35.21" y="59.6" width="5.86" height="5.86"/><rect class="cls-2" x="29.35" y="63.31" width="5.86" height="5.86"/><rect class="cls-2" x="14.91" y="31.14" width="5.86" height="19.04"/><rect class="cls-2" x="12.66" y="50.18" width="5.86" height="5.86"/><rect class="cls-2" x="7.41" y="54.01" width="5.86" height="5.86"/><rect class="cls-2" x="1.55" y="48.15" width="5.86" height="5.86"/><rect class="cls-2" x="81.33" y="31.68" width="5.86" height="19.04"/><rect class="cls-2" x="79.09" y="50.72" width="5.86" height="5.86"/><rect class="cls-2" x="73.83" y="54.55" width="5.86" height="5.86"/><rect class="cls-2" x="67.97" y="48.69" width="5.86" height="5.86"/></svg>